<?xml version="1.0" encoding="utf-8"?>
<!-- Generator: Adobe Illustrator 16.0.0, SVG Export Plug-In . SVG Version: 6.00 Build 0)  -->
<!DOCTYPE svg PUBLIC "-//W3C//DTD SVG 1.1//EN" "http://www.w3.org/Graphics/SVG/1.1/DTD/svg11.dtd">
<svg version="1.1" id="Layer_1" xmlns="http://www.w3.org/2000/svg" xmlns:xlink="http://www.w3.org/1999/xlink" x="0px" y="0px"
	 width="20px" height="260px" viewBox="0 0 20 260" enable-background="new 0 0 20 260" xml:space="preserve">
<rect y="0" width="20" height="260"/>
<g>
	<path fill="#FFFFFF" d="M10.957,165.613l2.543,0.84v1.08l-8.084-2.746v-1.26l8.084-2.76v1.115l-2.543,0.865V165.613z
		 M10.142,162.963l-2.327,0.791c-0.527,0.182-1.007,0.301-1.475,0.42v0.025c0.48,0.119,0.972,0.252,1.463,0.406l2.339,0.793V162.963
		z"/>
	<path fill="#FFFFFF" d="M13.5,159.59H8.498v0.814H7.695v-0.814H7.383c-1.535,0-2.53-0.9-2.53-2.531
		c0-0.539,0.168-1.176,0.384-1.475l0.804,0.299c-0.18,0.252-0.336,0.709-0.336,1.225c0,1.115,0.78,1.438,1.703,1.438h0.288v-3.369
		H13.5v1.043H8.498v2.326H13.5V159.59z"/>
	<path fill="#FFFFFF" d="M9.266,153.42c-0.6,0-1.091,0.014-1.57,0.049v-0.936l0.959-0.061v-0.023
		c-0.551-0.287-1.091-0.959-1.091-1.918c0-0.805,0.479-2.051,2.47-2.051H13.5v1.055h-3.346c-0.936,0-1.715,0.348-1.715,1.344
		c0,0.695,0.491,1.234,1.078,1.414c0.133,0.049,0.312,0.072,0.492,0.072h3.49v1.055H9.266z"/>
	<path fill="#FFFFFF" d="M13.5,143.547l-0.731,0.084v0.035c0.456,0.324,0.863,0.947,0.863,1.775c0,1.176-0.827,1.775-1.667,1.775
		c-1.403,0-2.171-1.248-2.158-3.49H9.686c-0.479,0-1.343,0.131-1.343,1.318c0,0.541,0.168,1.104,0.432,1.512l-0.695,0.24
		c-0.312-0.48-0.516-1.176-0.516-1.906c0-1.775,1.211-2.207,2.374-2.207h2.172c0.503,0,0.994-0.025,1.391-0.096V143.547z
		 M10.537,143.703c-0.023,1.15,0.181,2.457,1.308,2.457c0.684,0,1.008-0.455,1.008-0.994c0-0.756-0.479-1.236-0.972-1.404
		c-0.107-0.035-0.229-0.059-0.336-0.059H10.537z"/>
	<path fill="#FFFFFF" d="M9.266,140.977c-0.6,0-1.091,0.014-1.57,0.049v-0.936l0.959-0.061v-0.023
		c-0.551-0.287-1.091-0.959-1.091-1.918c0-0.805,0.479-2.051,2.47-2.051H13.5v1.055h-3.346c-0.936,0-1.715,0.348-1.715,1.344
		c0,0.695,0.491,1.234,1.078,1.414c0.133,0.049,0.312,0.072,0.492,0.072h3.49v1.055H9.266z"/>
	<path fill="#FFFFFF" d="M4.984,129.304h7.017c0.516,0,1.103-0.012,1.499-0.048v0.947l-1.008,0.048v0.024
		c0.648,0.324,1.14,1.031,1.14,1.978c0,1.404-1.188,2.482-2.95,2.482c-1.932,0.014-3.118-1.188-3.118-2.602
		c0-0.889,0.419-1.488,0.888-1.751v-0.023H4.984V129.304z M10.059,130.36c-0.133,0-0.312,0.012-0.444,0.048
		c-0.672,0.155-1.224,0.731-1.224,1.522c0,1.092,0.959,1.74,2.243,1.74c1.175,0,2.146-0.576,2.146-1.715
		c0-0.709-0.468-1.355-1.259-1.547c-0.145-0.036-0.288-0.048-0.456-0.048H10.059z"/>
	<path fill="#FFFFFF" d="M10.55,122.295c2.146,0,3.082,1.487,3.082,2.891c0,1.571-1.151,2.782-2.986,2.782
		c-1.942,0-3.082-1.271-3.082-2.878C7.563,123.423,8.774,122.295,10.55,122.295z M10.609,126.901c1.271,0,2.23-0.731,2.23-1.763
		c0-1.008-0.947-1.763-2.254-1.763c-0.984,0-2.23,0.491-2.23,1.738C8.355,126.362,9.506,126.901,10.609,126.901z"/>
	<path fill="#FFFFFF" d="M11.917,113.56c0.6,0,1.128-0.013,1.583-0.049v0.936l-0.947,0.061v0.023
		c0.468,0.276,1.079,0.888,1.079,1.919c0,0.912-0.503,2.003-2.542,2.003H7.695v-1.055h3.214c1.104,0,1.847-0.336,1.847-1.296
		c0-0.707-0.491-1.199-0.959-1.391c-0.156-0.061-0.348-0.097-0.539-0.097H7.695v-1.055H11.917z"/>
	<path fill="#FFFFFF" d="M9.266,111.805c-0.6,0-1.091,0.013-1.57,0.049v-0.936l0.959-0.061v-0.023
		c-0.551-0.288-1.091-0.96-1.091-1.919c0-0.804,0.479-2.051,2.47-2.051H13.5v1.055h-3.346c-0.936,0-1.715,0.349-1.715,1.344
		c0,0.695,0.491,1.235,1.078,1.415c0.133,0.048,0.312,0.072,0.492,0.072h3.49v1.055H9.266z"/>
	<path fill="#FFFFFF" d="M12.42,102.746c0.205-0.312,0.42-0.863,0.42-1.392c0-0.768-0.383-1.127-0.863-1.127
		c-0.504,0-0.779,0.3-1.067,1.079c-0.372,1.044-0.947,1.535-1.644,1.535c-0.935,0-1.702-0.756-1.702-2.003
		c0-0.588,0.167-1.104,0.359-1.427l0.768,0.264c-0.144,0.228-0.335,0.647-0.335,1.188c0,0.623,0.359,0.971,0.791,0.971
		c0.479,0,0.695-0.348,0.983-1.103c0.384-1.008,0.888-1.523,1.751-1.523c1.02,0,1.739,0.791,1.739,2.171
		c0,0.636-0.156,1.223-0.396,1.631L12.42,102.746z"/>
	<path fill="#FFFFFF" d="M11.917,92.993c0.6,0,1.128-0.013,1.583-0.049v0.936l-0.947,0.061v0.023
		c0.468,0.276,1.079,0.888,1.079,1.919c0,0.912-0.503,2.003-2.542,2.003H7.695v-1.055h3.214c1.104,0,1.847-0.336,1.847-1.296
		c0-0.707-0.491-1.199-0.959-1.391c-0.156-0.061-0.348-0.097-0.539-0.097H7.695v-1.055H11.917z"/>
	<path fill="#FFFFFF" d="M10.789,90.651c1.428-0.024,2.016-0.936,2.016-1.991c0-0.756-0.133-1.211-0.301-1.607l0.756-0.18
		c0.168,0.372,0.36,1.008,0.36,1.931c0,1.787-1.176,2.854-2.927,2.854s-3.13-1.031-3.13-2.723c0-1.895,1.667-2.398,2.734-2.398
		c0.216,0,0.384,0.024,0.491,0.036V90.651z M10.033,87.556c-0.671-0.012-1.715,0.276-1.715,1.463c0,1.067,0.984,1.535,1.715,1.619
		V87.556z"/>
	<path fill="#FFFFFF" d="M6.699,84.242c-0.779,0.024-1.246-0.3-1.246-0.815c0-0.264,0.107-0.468,0.264-0.743
		c0.107-0.192,0.203-0.36,0.203-0.504c0-0.191-0.107-0.312-0.516-0.336V81.28c0.804-0.012,1.211,0.264,1.211,0.827
		c0,0.252-0.107,0.48-0.239,0.731c-0.144,0.24-0.216,0.372-0.216,0.517c0,0.191,0.203,0.287,0.539,0.312V84.242z M9.266,85.225
		c-0.6,0-1.091,0.013-1.57,0.049v-0.936l0.959-0.061v-0.023c-0.551-0.288-1.091-0.96-1.091-1.919c0-0.804,0.479-2.051,2.47-2.051
		H13.5v1.055h-3.346c-0.936,0-1.715,0.349-1.715,1.344c0,0.695,0.491,1.235,1.078,1.415C9.65,84.146,9.83,84.17,10.01,84.17h3.49
		v1.055H9.266z"/>
	<path fill="#FFFFFF" d="M10.55,73.313c2.146,0,3.082,1.487,3.082,2.891c0,1.571-1.151,2.782-2.986,2.782
		c-1.942,0-3.082-1.271-3.082-2.878C7.563,74.441,8.774,73.313,10.55,73.313z M10.609,77.918c1.271,0,2.23-0.731,2.23-1.763
		c0-1.008-0.947-1.763-2.254-1.763c-0.984,0-2.23,0.491-2.23,1.738C8.355,77.379,9.506,77.918,10.609,77.918z"/>
</g>
</svg>
