<?xml version="1.0" encoding="utf-8"?>
<!-- Generator: Adobe Illustrator 16.0.0, SVG Export Plug-In . SVG Version: 6.00 Build 0)  -->
<!DOCTYPE svg PUBLIC "-//W3C//DTD SVG 1.1//EN" "http://www.w3.org/Graphics/SVG/1.1/DTD/svg11.dtd">
<svg version="1.1" id="Layer_1" xmlns="http://www.w3.org/2000/svg" xmlns:xlink="http://www.w3.org/1999/xlink" x="0px" y="0px"
	 width="20px" height="260px" viewBox="0 0 20 260" enable-background="new 0 0 20 260" xml:space="preserve">
<rect x="120" y="-120" width="20" height="260"/>
<g>
	<path fill="#FFFFFF" d="M130.957,45.613l2.543,0.84v1.079l-8.084-2.746v-1.26l8.084-2.759v1.115l-2.543,0.864V45.613z
		 M130.142,42.963l-2.327,0.791c-0.527,0.181-1.007,0.3-1.475,0.42v0.024c0.48,0.12,0.972,0.252,1.463,0.407l2.339,0.792V42.963z"/>
	<path fill="#FFFFFF" d="M133.5,39.589h-5.002v0.815h-0.803v-0.815h-0.312c-1.535,0-2.53-0.899-2.53-2.53
		c0-0.54,0.168-1.176,0.384-1.476l0.804,0.3c-0.18,0.252-0.336,0.708-0.336,1.224c0,1.115,0.78,1.438,1.703,1.438h0.288v-3.37h5.805
		v1.044h-5.002v2.326h5.002V39.589z"/>
	<path fill="#FFFFFF" d="M129.266,33.42c-0.6,0-1.091,0.013-1.57,0.049v-0.936l0.959-0.061v-0.023
		c-0.551-0.288-1.091-0.96-1.091-1.919c0-0.804,0.479-2.051,2.47-2.051h3.467v1.055h-3.346c-0.936,0-1.715,0.349-1.715,1.344
		c0,0.695,0.491,1.235,1.078,1.415c0.133,0.048,0.312,0.072,0.492,0.072h3.49v1.055H129.266z"/>
	<path fill="#FFFFFF" d="M133.5,23.546l-0.731,0.084v0.036c0.456,0.324,0.863,0.947,0.863,1.775c0,1.175-0.827,1.774-1.667,1.774
		c-1.403,0-2.171-1.247-2.158-3.49h-0.121c-0.479,0-1.343,0.132-1.343,1.319c0,0.54,0.168,1.104,0.432,1.512l-0.695,0.239
		c-0.312-0.479-0.516-1.175-0.516-1.906c0-1.775,1.211-2.207,2.374-2.207h2.172c0.503,0,0.994-0.024,1.391-0.096V23.546z
		 M130.537,23.702c-0.023,1.151,0.181,2.458,1.308,2.458c0.684,0,1.008-0.455,1.008-0.995c0-0.756-0.479-1.235-0.972-1.403
		c-0.107-0.036-0.229-0.06-0.336-0.06H130.537z"/>
	<path fill="#FFFFFF" d="M129.266,20.977c-0.6,0-1.091,0.013-1.57,0.049V20.09l0.959-0.061v-0.023
		c-0.551-0.288-1.091-0.96-1.091-1.919c0-0.804,0.479-2.051,2.47-2.051h3.467v1.055h-3.346c-0.936,0-1.715,0.349-1.715,1.344
		c0,0.695,0.491,1.235,1.078,1.415c0.133,0.048,0.312,0.072,0.492,0.072h3.49v1.055H129.266z"/>
	<path fill="#FFFFFF" d="M124.984,9.304h7.017c0.516,0,1.103-0.012,1.499-0.048v0.947l-1.008,0.048v0.024
		c0.648,0.323,1.14,1.031,1.14,1.979c0,1.403-1.188,2.482-2.95,2.482c-1.932,0.013-3.118-1.188-3.118-2.603
		c0-0.888,0.419-1.487,0.888-1.751v-0.023h-3.467V9.304z M130.059,10.359c-0.133,0-0.312,0.012-0.444,0.048
		c-0.672,0.155-1.224,0.731-1.224,1.522c0,1.092,0.959,1.739,2.243,1.739c1.175,0,2.146-0.575,2.146-1.715
		c0-0.708-0.468-1.355-1.259-1.547c-0.145-0.036-0.288-0.048-0.456-0.048H130.059z"/>
	<path fill="#FFFFFF" d="M130.55,2.295c2.146,0,3.082,1.487,3.082,2.891c0,1.571-1.151,2.782-2.986,2.782
		c-1.942,0-3.082-1.271-3.082-2.878C127.563,3.423,128.774,2.295,130.55,2.295z M130.609,6.9c1.271,0,2.23-0.731,2.23-1.763
		c0-1.008-0.947-1.763-2.254-1.763c-0.984,0-2.23,0.491-2.23,1.738C128.355,6.361,129.506,6.9,130.609,6.9z"/>
	<path fill="#FFFFFF" d="M131.917-6.44c0.6,0,1.128-0.013,1.583-0.049v0.936l-0.947,0.061v0.023
		c0.468,0.276,1.079,0.888,1.079,1.919c0,0.912-0.503,2.003-2.542,2.003h-3.395v-1.055h3.214c1.104,0,1.847-0.336,1.847-1.296
		c0-0.707-0.491-1.199-0.959-1.391c-0.156-0.061-0.348-0.097-0.539-0.097h-3.562V-6.44H131.917z"/>
	<path fill="#FFFFFF" d="M129.266-8.195c-0.6,0-1.091,0.013-1.57,0.049v-0.936l0.959-0.061v-0.023
		c-0.551-0.288-1.091-0.96-1.091-1.919c0-0.804,0.479-2.051,2.47-2.051h3.467v1.055h-3.346c-0.936,0-1.715,0.349-1.715,1.344
		c0,0.695,0.491,1.235,1.078,1.415c0.133,0.048,0.312,0.072,0.492,0.072h3.49v1.055H129.266z"/>
	<path fill="#FFFFFF" d="M132.42-17.255c0.205-0.312,0.42-0.863,0.42-1.392c0-0.768-0.383-1.127-0.863-1.127
		c-0.504,0-0.779,0.3-1.067,1.079c-0.372,1.044-0.947,1.535-1.644,1.535c-0.935,0-1.702-0.756-1.702-2.003
		c0-0.588,0.167-1.104,0.359-1.427l0.768,0.264c-0.144,0.228-0.335,0.647-0.335,1.188c0,0.623,0.359,0.971,0.791,0.971
		c0.479,0,0.695-0.348,0.983-1.103c0.384-1.008,0.888-1.523,1.751-1.523c1.02,0,1.739,0.791,1.739,2.171
		c0,0.636-0.156,1.223-0.396,1.631L132.42-17.255z"/>
	<path fill="#FFFFFF" d="M131.917-27.008c0.6,0,1.128-0.013,1.583-0.049v0.936l-0.947,0.061v0.023
		c0.468,0.276,1.079,0.888,1.079,1.919c0,0.912-0.503,2.003-2.542,2.003h-3.395v-1.055h3.214c1.104,0,1.847-0.336,1.847-1.296
		c0-0.707-0.491-1.199-0.959-1.391c-0.156-0.061-0.348-0.097-0.539-0.097h-3.562v-1.055H131.917z"/>
	<path fill="#FFFFFF" d="M130.789-29.35c1.428-0.024,2.016-0.936,2.016-1.991c0-0.756-0.133-1.211-0.301-1.607l0.756-0.18
		c0.168,0.372,0.36,1.008,0.36,1.931c0,1.787-1.176,2.854-2.927,2.854s-3.13-1.031-3.13-2.723c0-1.895,1.667-2.398,2.734-2.398
		c0.216,0,0.384,0.024,0.491,0.036V-29.35z M130.033-32.444c-0.671-0.012-1.715,0.276-1.715,1.463c0,1.067,0.984,1.535,1.715,1.619
		V-32.444z"/>
	<path fill="#FFFFFF" d="M126.699-35.759c-0.779,0.024-1.246-0.3-1.246-0.815c0-0.264,0.107-0.468,0.264-0.743
		c0.107-0.192,0.203-0.36,0.203-0.504c0-0.191-0.107-0.312-0.516-0.336v-0.563c0.804-0.012,1.211,0.264,1.211,0.827
		c0,0.252-0.107,0.48-0.239,0.731c-0.144,0.24-0.216,0.372-0.216,0.517c0,0.191,0.203,0.287,0.539,0.312V-35.759z M129.266-34.775
		c-0.6,0-1.091,0.013-1.57,0.049v-0.936l0.959-0.061v-0.023c-0.551-0.288-1.091-0.96-1.091-1.919c0-0.804,0.479-2.051,2.47-2.051
		h3.467v1.055h-3.346c-0.936,0-1.715,0.349-1.715,1.344c0,0.695,0.491,1.235,1.078,1.415c0.133,0.048,0.312,0.072,0.492,0.072h3.49
		v1.055H129.266z"/>
	<path fill="#FFFFFF" d="M130.55-46.688c2.146,0,3.082,1.487,3.082,2.891c0,1.571-1.151,2.782-2.986,2.782
		c-1.942,0-3.082-1.271-3.082-2.878C127.563-45.56,128.774-46.688,130.55-46.688z M130.609-42.082c1.271,0,2.23-0.731,2.23-1.763
		c0-1.008-0.947-1.763-2.254-1.763c-0.984,0-2.23,0.491-2.23,1.738C128.355-42.621,129.506-42.082,130.609-42.082z"/>
</g>
</svg>
